<?xml version="1.0" standalone="no"?><!DOCTYPE svg PUBLIC "-//W3C//DTD SVG 1.1//EN" "http://www.w3.org/Graphics/SVG/1.1/DTD/svg11.dtd"><svg t="1735195263391" class="icon" viewBox="0 0 1670 1024" version="1.1" xmlns="http://www.w3.org/2000/svg" p-id="21080" xmlns:xlink="http://www.w3.org/1999/xlink" width="326.171875" height="200"><path d="M1244.968421 307.2h-32.336842v107.789474h32.336842c26.947368 0 32.336842-32.336842 32.336842-53.894737 0-26.947368 0-53.894737-32.336842-53.894737z" fill="#29B6F6" p-id="21081"></path><path d="M1509.052632 48.505263H188.631579C113.178947 48.505263 48.505263 107.789474 48.505263 188.631579V1007.831579l204.8-204.8H1509.052632c75.452632 0 140.126316-64.673684 140.126315-140.126316V188.631579C1654.568421 107.789474 1589.894737 48.505263 1509.052632 48.505263zM625.178947 619.789474h-75.452631v-161.684211H485.052632v161.684211H404.210526V237.136842H485.052632v156.294737h64.673684V237.136842h75.452631v382.652632z m242.526316-312.589474h-64.673684v312.589474h-75.452632V307.2h-64.673684V237.136842h204.8v70.063158z m231.747369 0h-64.673685v312.589474h-75.452631V307.2h-64.673684V237.136842h204.8v70.063158z m145.515789 172.463158h-32.336842v140.126316h-75.452632V237.136842h107.789474c80.842105 0 107.789474 48.505263 107.789474 123.957895 0 70.063158-21.557895 118.568421-107.789474 118.568421z" fill="#29B6F6" p-id="21082"></path></svg>