<?xml version="1.0" standalone="no"?><!DOCTYPE svg PUBLIC "-//W3C//DTD SVG 1.1//EN" "http://www.w3.org/Graphics/SVG/1.1/DTD/svg11.dtd"><svg t="1735195211223" class="icon" viewBox="0 0 1024 1024" version="1.1" xmlns="http://www.w3.org/2000/svg" p-id="20041" xmlns:xlink="http://www.w3.org/1999/xlink" width="200" height="200"><path d="M0 0m307.2 0l409.6 0q307.2 0 307.2 307.2l0 409.6q0 307.2-307.2 307.2l-409.6 0q-307.2 0-307.2-307.2l0-409.6q0-307.2 307.2-307.2Z" fill="#FFC700" p-id="20042"></path><path d="M574.678 595.881c19.684 31.972 41.074 62.607 86.386 62.607 38.059 0 58.027-18.916 58.027-45.085 0-31.317-20.651-42.439-62.521-60.672l-22.955-9.785c-66.247-28.103-110.307-63.317-110.307-137.699 0-68.551 52.48-120.719 134.485-120.719 58.396 0 100.352 20.224 130.617 73.188l-71.509 45.71c-15.73-28.103-32.74-39.168-59.108-39.168-26.908 0-43.947 16.982-43.947 39.168 0 27.421 17.067 38.514 56.463 55.495l22.954 9.785c78.08 33.252 122.112 67.214 122.112 143.559 0 82.262-64.967 127.346-152.177 127.346-85.305 0-133.746-42.809-160.712-95.801l72.192-47.929z m-329.557 2.333c14.393 25.77 36.267 45.596 67.726 45.596 30.094 0 47.417-11.89 47.417-58.112V284.5h94.805v315.762c0 95.772-55.552 139.349-136.675 139.349-73.301 0-126.208-49.664-147.769-95.801l74.496-45.596z" fill="#000000" p-id="20043"></path></svg>