<?xml version="1.0" standalone="no"?><!DOCTYPE svg PUBLIC "-//W3C//DTD SVG 1.1//EN" "http://www.w3.org/Graphics/SVG/1.1/DTD/svg11.dtd"><svg t="1735195489384" class="icon" viewBox="0 0 1024 1024" version="1.1" xmlns="http://www.w3.org/2000/svg" p-id="32056" xmlns:xlink="http://www.w3.org/1999/xlink" width="200" height="200"><path d="M212.053333 480c24.32 0 43.946667 19.114667 43.946667 42.666667l-0.085333 159.914666H382.293333V522.666667c0-11.349333 4.693333-22.186667 12.885334-30.208a44.544 44.544 0 0 1 31.061333-12.458667H591.36c24.32 0 43.946667 19.114667 43.946667 42.666667l-0.085334 159.914666h132.778667L768 522.666667c0-11.349333 4.608-22.186667 12.8-30.208a44.544 44.544 0 0 1 31.146667-12.458667h165.034666c24.234667 0 43.861333 19.114667 43.861334 42.666667V981.333333c0 23.552-19.626667 42.666667-43.861334 42.666667H811.946667a44.544 44.544 0 0 1-31.061334-12.458667A42.069333 42.069333 0 0 1 768 981.333333l-0.085333-213.418666H635.136l0.085333 213.418666c0 23.552-19.626667 42.666667-43.946666 42.666667H426.24a44.544 44.544 0 0 1-31.061333-12.458667 42.069333 42.069333 0 0 1-12.8-30.208L382.293333 767.914667H255.914667L256 981.333333c0 23.552-19.626667 42.666667-43.946667 42.666667H47.018667a44.544 44.544 0 0 1-31.061334-12.458667 42.069333 42.069333 0 0 1-12.8-30.208V522.666667c0-11.349333 4.608-22.186667 12.8-30.208a44.544 44.544 0 0 1 31.061334-12.458667h165.034666z m-43.861333 85.333333h-77.226667V938.666667h77.226667V565.333333z m379.221333 0H470.186667V938.666667h77.226666V565.333333z m385.706667 0h-77.312V938.666667h77.226667V565.333333zM463.872 0c84.053333 0 123.221333 49.237333 123.221333 152.405333 0 71.168-29.610667 113.152-91.221333 129.962667v5.632c28.416 9.557333 51.626667 13.226667 100.437333 15.189333l-42.410666 53.248C393.216 314.026667 341.589333 267.605333 341.589333 152.405333 341.589333 49.152 380.842667 0 463.957333 0z m-365.226667 4.010667l44.885334 143.616 9.216 49.493333h2.730666l9.216-49.493333 7.253334-22.442667 38.4-121.173333h97.962666v296.021333h-64v-212.48h-2.389333l-13.226667 50.858667-7.168 22.357333-39.253333 123.989333h-57.514667l-46.08-146.346666-13.568-50.773334H62.805333v212.394667H0V3.925333h98.816z m709.290667 0v58.794666h-67.584v237.226667h-68.437333V62.805333h-67.157334v-58.88h203.093334z m215.978667 0v58.794666h-67.584v237.226667h-68.437334V62.805333H820.906667v-58.88H1024zM463.957333 54.784c-40.789333 0-53.589333 23.210667-53.589333 97.621333 0 73.557333 12.8 96.768 53.589333 96.768 41.216 0 54.442667-23.552 54.442667-96.768 0-74.410667-13.226667-97.621333-54.442667-97.621333z" fill="#5883FF" p-id="32057"></path></svg>