<?xml version="1.0" standalone="no"?><!DOCTYPE svg PUBLIC "-//W3C//DTD SVG 1.1//EN" "http://www.w3.org/Graphics/SVG/1.1/DTD/svg11.dtd"><svg t="1735201393170" class="icon" viewBox="0 0 1024 1024" version="1.1" xmlns="http://www.w3.org/2000/svg" p-id="40376" xmlns:xlink="http://www.w3.org/1999/xlink" width="200" height="200"><path d="M389.2 656.2v-94.7c-0.2-13.5-11.2-24.4-24.8-24.4H177.2c-13.7 0-24.8-11.1-24.8-24.8v-69.2c0-6.5 2.6-12.8 7.3-17.4 4.7-4.6 11-7.1 17.5-7h187.2c13.6-0.2 24.6-11.2 24.8-24.8v-94.7L550.9 461c9.4 9.6 9.4 25 0 34.6L389.2 656.2z m0 0" fill="#4E8CEE" p-id="40377"></path><path d="M926.4 990.9c0 8.5-3.4 16.6-9.4 22.5-6 6-14.2 9.2-22.6 9.2H644.9c-20.1 0-36.4-16.3-36.4-36.4V933c0-9.7 3.8-18.9 10.7-25.8 6.8-6.8 16.1-10.7 25.8-10.7h115.8c20.1 0 36.4-16.3 36.4-36.4v-437c0-20.1-16.3-36.4-36.4-36.4H575c-8.5 0.2-16.6-3.1-22.6-9.1s-9.3-14.2-9.1-22.6V166.4c0-9.7-3.8-18.9-10.7-25.8-6.8-6.8-16.1-10.7-25.8-10.7H261.7c-9.7 0-18.9 3.8-25.8 10.7-6.8 6.8-10.7 16.1-10.7 25.8v115.8c0 20.1-16.3 36.4-36.4 36.4h-56.4c-9.7 0-18.9-3.8-25.8-10.7-6.8-6.8-10.7-16.1-10.7-25.8V70.6c0-18.5 7.4-36.3 20.5-49.4C129.6 8 147.4 0.6 166 0.6h425.4c10.1 0 19.7 3.9 26.9 10.9l297.2 297.6c7.1 7 11.1 16.6 10.9 26.6v655.2z m0 0" fill="#A6C5F6" p-id="40378"></path><path d="M475.5 836.1H303.6c-8.6 0-16.8 3.4-22.9 9.5-6.1 6.1-9.5 14.3-9.5 22.9v87L115 799.3c-6.1-6-9.5-14.2-9.5-22.8 0-8.5 3.4-16.7 9.5-22.8l156.2-156.2v87c0 8.6 3.4 16.8 9.5 22.8s14.3 9.4 22.9 9.3h171.9c8.6 0 16.8 3.4 22.9 9.5 6.1 6.1 9.5 14.3 9.5 22.9v55c0 8.6-3.4 16.8-9.5 22.8-6.1 6.1-14.3 9.4-22.9 9.3z m0 0" fill="#4E8CEE" p-id="40379"></path></svg>