<?xml version="1.0" standalone="no"?><!DOCTYPE svg PUBLIC "-//W3C//DTD SVG 1.1//EN" "http://www.w3.org/Graphics/SVG/1.1/DTD/svg11.dtd"><svg t="1735195082930" class="icon" viewBox="0 0 1024 1024" version="1.1" xmlns="http://www.w3.org/2000/svg" p-id="17989" xmlns:xlink="http://www.w3.org/1999/xlink" width="200" height="200"><path d="M858.301078 191.239196c0 105.687812-192.149317 191.352961-429.17898 191.35296C192.149317 382.592156 0 296.927008 0 191.239196 0 85.665148 192.149317 0 429.122098 0c237.029663 0 429.17898 85.665148 429.17898 191.239196zM528.552827 893.852683c-14.505055 24.459504-14.61882 54.891679-0.45506 79.521831-31.854238 3.412954-64.846128 5.346961-98.975669 5.346961C192.092434 978.721475 0 893.056327 0 787.425397v-146.245084c0 105.687812 192.092434 191.296078 429.122098 191.352961 13.765582 0 27.474281-0.341295 41.126097-0.910121 5.688257 30.261526 28.441284 54.550383 58.304632 62.22953zM427.586268 767.914676C191.409843 767.914676 0 683.899122 0 580.2022V436.630597c0 103.753805 191.409843 187.712476 427.586268 187.712476 30.545939 0 60.295523-1.365182 89.078103-4.095545-2.275303 17.235418 1.365182 34.755249 10.352627 49.658482a78.042884 78.042884 0 0 0-59.840462 75.653817v21.444728c-13.082991 0.568826-26.222864 0.910121-39.590268 0.910121z m1.308299-189.077658c42.320631 0 83.27608-2.844128 121.899345-7.963559l32.081768-32.195534a78.83924 78.83924 0 0 1 96.017776-12.4004 79.408066 79.408066 0 0 1 76.734585-59.385402h59.442285c1.137651 0 2.21842 0.284413 3.242306 0.284413 25.02833-24.288857 39.362737-51.364959 39.362737-79.863126V240.954561c0 105.801578-191.921786 191.523608-428.894567 191.523608C191.808021 432.421287 0 346.699256 0 240.897678v146.415732c0 105.801578 191.921786 191.523608 428.894567 191.523608zM1023.886235 814.444617V754.831685l-70.761915-11.604044a171.84224 171.84224 0 0 0-19.453839-47.098766l41.18298-58.987224-42.036218-42.263749-58.02022 41.922454a171.045884 171.045884 0 0 0-47.212532-19.738252l-12.457283-70.64815h-59.442284l-11.433396 70.42062a170.30641 170.30641 0 0 0-47.38318 19.453838l-57.963337-41.41051-42.093101 42.263749 40.784801 58.361515c-8.987446 14.789468-15.642706 30.830352-19.795133 47.61071l-69.908677 11.604044v59.726697l69.965559 12.457283c4.038662 17.064771 10.807688 33.105655 19.738251 47.724475l-41.353627 57.849572 42.093101 42.263749 58.304633-40.95545c14.732585 8.873681 30.716587 15.472059 47.383179 19.567604l11.604044 70.534385h59.499167l12.514165-70.64815c16.60971-4.20931 32.479947-10.864571 47.098767-19.795134l58.702811 41.353627 42.093101-42.320631-41.979336-58.361515c8.816798-14.675703 15.358294-30.602822 19.396956-47.212532L1023.886235 814.558382v-0.113765z m-237.996667 53.924675a83.162315 83.162315 0 0 1-83.04855-83.27608c0-45.961115 37.144317-83.27608 83.04855-83.276081 45.84735 0 82.991668 37.314965 82.991667 83.276081 0 45.961115-37.144317 83.27608-83.04855 83.27608z" fill="#00AE7F" p-id="17990"></path></svg>