<?xml version="1.0" standalone="no"?><!DOCTYPE svg PUBLIC "-//W3C//DTD SVG 1.1//EN" "http://www.w3.org/Graphics/SVG/1.1/DTD/svg11.dtd"><svg t="1735194947799" class="icon" viewBox="0 0 1024 1024" version="1.1" xmlns="http://www.w3.org/2000/svg" p-id="12586" xmlns:xlink="http://www.w3.org/1999/xlink" width="200" height="200"><path d="M858.4 106.4H121.6C56.8 106.4 4 158.4 4 224v464.8c0 64.8 52.8 117.6 117.6 117.6h44v118.4c0 28.8 36.8 41.6 54.4 18.4l106.4-136.8h531.2c64.8 0 117.6-52.8 117.6-117.6V224c1.6-65.6-51.2-117.6-116.8-117.6z m-512 148h112.8c14.4 0 25.6 14.4 25.6 32s-11.2 32-25.6 32H346.4c-14.4 0-25.6-14.4-25.6-32s11.2-32 25.6-32z m-208.8 0h112.8c14.4 0 25.6 14.4 25.6 32s-11.2 32-25.6 32H137.6c-14.4 0-25.6-14.4-25.6-32s11.2-32 25.6-32z m5.6 166.4h193.6c17.6 0 32 14.4 32 32s-14.4 32-32 32H143.2c-17.6 0-32-14.4-32-32 0.8-17.6 15.2-32 32-32z m519.2 230.4H143.2c-17.6 0-32-14.4-32-32s14.4-32 32-32h519.2c17.6 0 32 14.4 32 32s-14.4 32-32 32z" fill="#9CA7EA" p-id="12587"></path><path d="M1016 564l-98.4-98.4c56-76 50.4-183.2-18.4-252-75.2-75.2-198.4-75.2-273.6 0-75.2 75.2-75.2 198.4 0 273.6 68.8 68.8 176 74.4 252 18.4L976 604c11.2 11.2 29.6 11.2 40.8 0 9.6-10.4 9.6-28.8-0.8-40z m-164-123.2c-49.6 49.6-129.6 49.6-179.2 0-49.6-49.6-49.6-129.6 0-179.2 49.6-49.6 129.6-49.6 179.2 0 49.6 49.6 49.6 129.6 0 179.2z" fill="#7283D3" p-id="12588"></path></svg>